# xmcd CD database file
#
# Track frame offsets:
#	150
#	19094
#	35449
#	54970
#	72279
#	88686
#	105830
#	121870
#	142467
#	160010
#	180012
#	195981
#
# Disc length: 2910 seconds
#
# Revision: 2
# Processed by: cddbd v1.5.2PL0 Copyright (c) Steve Scherf et al.
# Submitted via: CDex 1.78
#
DISCID=8e0b5c0c
DTITLE=Audioslave - Revelations
DYEAR=2006
DGENRE=Rock
TTITLE0=Revelations
TTITLE1=One And The Same
TTITLE2=Sound Of A Gun
TTITLE3=Until We Fall
TTITLE4=Original Fire
TTITLE5=Broken City
TTITLE6=Somedays
TTITLE7=Shape Of Things To Come
TTITLE8=Jewel Of The Summertime
TTITLE9=Wide Awake
TTITLE10=Nothing Left To Say But Goodbye
TTITLE11=Moth
EXTD=YEAR: 2006
EXTT0=
EXTT1=
EXTT2=
EXTT3=
EXTT4=
EXTT5=
EXTT6=
EXTT7=
EXTT8=
EXTT9=
EXTT10=
EXTT11=
PLAYORDER=
